# xmcd CD database file
# Copyright (C) 1996 Ti Kan
#
# Track frame offsets:
#  150
#  16350
#  32135
#  43477
#  53667
#  67787
#  81710
#  94227
#  112937
#  127627
#  140647
#  156140
#
# Disc length: 2356 seconds
#
# Revision: 2
# Processed by: cddbd v1.4b41PL1 Copyright (c) Steve Scherf et al.
# Submitted via: CDWizzard Release:4.12
#
DISCID=9d09320c
DTITLE=John Hammond - Frogs For Snakes
DYEAR=1900
DGENRE=
TTITLE0=You Don't Love Me
TTITLE1=Got To Find My Baby
TTITLE2=Step It Up And Go
TTITLE3=Fattening Frogs For Snakes
TTITLE4=Gypsy Woman
TTITLE5=Key To The Highway
TTITLE6=My Baby Left Me
TTITLE7=Louisiana Blues
TTITLE8=Mellow Down Easy
TTITLE9=Your Funeral And My Trial
TTITLE10=Mellow Peaches
TTITLE11=Gone So Long
EXTD=Rounder CD 3060\nCD Issue:  1994
EXTT0=
EXTT1=
EXTT2=
EXTT3=
EXTT4=
EXTT5=
EXTT6=
EXTT7=
EXTT8=
EXTT9=
EXTT10=
EXTT11=
PLAYORDER=
